# xmcd CD database file
#
# Track frame offsets:
#	150
#	15679
#	29102
#	50765
#	64466
#	88627
#	109122
#	121171
#	145034
#	179927
#
# Disc length: 2473 seconds
#
# Revision: 0
# Processed by: cddbd v1.4PL0 Copyright (c) Steve Scherf et al.
# Submitted via: CDex 1.40Release
#
DISCID=9609a70a
DTITLE=Black Eyed Snakes - It's the Black Eyed Snakes
DYEAR=2001
DGENRE=Blues
TTITLE0=Chicken-Bone George
TTITLE1=Smokestack Lightnin'
TTITLE2=Big Black Train
TTITLE3=Honey
TTITLE4=8-Inch Knife
TTITLE5=New Orleans
TTITLE6=Lordy
TTITLE7=Mannish Boy
TTITLE8=My New House
TTITLE9=Cheerios on the Floor
EXTD=YEAR: 2001 ID3G: 0
EXTT0=
EXTT1=
EXTT2=
EXTT3=
EXTT4=
EXTT5=
EXTT6=
EXTT7=
EXTT8=
EXTT9=
PLAYORDER=
